<svg width="100" height="40" viewBox="0 0 100 40" fill="none" xmlns="http://www.w3.org/2000/svg">
<path d="M44.5646 21.186V23.4481V23.7791V27.9722V35.4205L48.9454 31.8343V27.9722V23.4481V20.3584C48.9454 19.6964 49.4321 19.1998 50.0811 19.1998V18.924H46.8361C45.5922 18.8688 44.5646 19.9171 44.5646 21.186Z" fill="#0C2340"/>
<path d="M42.5095 31.283V12.2485H37.9665V15.6692V30.4003C37.9665 31.7244 38.94 32.7175 40.238 32.7175H43.6452V32.4416C42.9962 32.4416 42.5095 31.9451 42.5095 31.283Z" fill="#0C2340"/>
<path d="M26.1763 30.7309H18.5506C17.9016 30.7309 17.4148 30.2343 17.4148 29.5723H17.1444V32.4412C17.1444 33.7654 18.1179 34.7585 19.4159 34.7585H27.0416C27.6906 34.7585 28.1774 35.255 28.1774 35.8619V36.9654L28.4478 36.7447V35.9171V35.0343V33.0481C28.4478 31.724 27.4743 30.7309 26.1763 30.7309Z" fill="#0C2340"/>
<path d="M33.748 17.4347C35.1518 17.4347 36.2899 16.2738 36.2899 14.8416C36.2899 13.4095 35.1518 12.2485 33.748 12.2485C32.3441 12.2485 31.2061 13.4095 31.2061 14.8416C31.2061 16.2738 32.3441 17.4347 33.748 17.4347Z" fill="#0C2340"/>
<path d="M49.9189 17.4894C51.3227 17.4894 52.4608 16.3285 52.4608 14.8963C52.4608 13.4642 51.3227 12.3032 49.9189 12.3032C48.515 12.3032 47.377 13.4642 47.377 14.8963C47.377 16.3285 48.515 17.4894 49.9189 17.4894Z" fill="#0C2340"/>
<path d="M26.0681 19.0347C25.7977 18.9243 25.5273 18.8691 25.2569 18.8691H23.9048H22.7691H20.2812C20.0108 18.8691 19.7945 18.9243 19.5241 18.9795C17.523 19.476 16.0087 21.2967 16.0087 23.5036C16.0087 25.6553 17.4689 27.476 19.47 27.9726C19.7404 28.0829 20.0108 28.1381 20.2812 28.1381H22.7691H24.9865H25.2569C25.5273 28.1381 25.7436 28.0829 26.0141 28.0278C28.0151 27.5312 29.5295 25.7105 29.5295 23.5036C29.5295 21.3519 28.0692 19.5312 26.0681 19.0347ZM23.9048 26.7036C23.9048 27.3657 23.4181 27.8622 22.7691 27.8622C22.1201 27.8622 21.6333 27.3657 21.6333 26.7036V24.1657V20.3588C21.6333 19.6967 22.1201 19.2002 22.7691 19.2002C23.4181 19.2002 23.9048 19.6967 23.9048 20.3588V22.8967V26.7036Z" fill="#0C2340"/>
<path d="M7.84208 16C12.1731 16 15.6842 12.4183 15.6842 8C15.6842 3.58172 12.1731 0 7.84208 0C3.51102 0 0 3.58172 0 8C0 12.4183 3.51102 16 7.84208 16Z" fill="#0C2340"/>
<path d="M19.1455 7.83454C19.47 8.00006 19.8486 8.1104 20.2272 8.1104H23.6344V7.83454C22.9854 7.83454 22.4986 7.33799 22.4986 6.67592V2.42764C22.4986 1.76557 22.9854 1.26902 23.6344 1.26902H25.8518C25.6355 1.37937 25.4191 1.54488 25.2028 1.7104C24.2293 2.70351 24.2293 4.41385 25.2028 5.40695C26.1763 6.40006 27.8529 6.40006 28.8264 5.40695C29.7999 4.41385 29.7999 2.70351 28.8264 1.7104C28.3396 1.21385 27.6906 0.937988 26.9876 0.937988H23.5803H20.3894H20.1731C19.8486 0.937988 19.5241 0.993161 19.1996 1.15868C17.8475 1.65523 16.9281 2.97937 16.9281 4.46902C16.9281 6.01385 17.8475 7.28281 19.1455 7.83454Z" fill="#0C2340"/>
<path d="M27.4743 7.83447C27.3121 7.7793 27.1498 7.7793 26.9876 7.7793H23.5803V8.05516C24.2293 8.05516 24.7161 8.55171 24.7161 9.21378V13.4069C24.7161 14.069 24.2293 14.5655 23.5803 14.5655H21.3629C21.5792 14.4552 21.7956 14.2896 22.0119 14.1241C22.9854 13.131 22.9854 11.4207 22.0119 10.4276C21.0384 9.43447 19.3618 9.43447 18.3883 10.4276C17.4148 11.4207 17.4148 13.131 18.3883 14.1241C18.8751 14.6207 19.5241 14.8965 20.2272 14.8965H23.6344H27.0416C27.1498 14.8965 27.2039 14.8965 27.3121 14.8965C27.3661 14.8965 27.4202 14.8965 27.4743 14.8965C27.4743 14.8965 27.4743 14.8965 27.5284 14.8965C29.205 14.6207 30.4489 13.1862 30.4489 11.4207C30.3948 9.54481 29.1509 8.11033 27.4743 7.83447Z" fill="#0C2340"/>
<path d="M52.9475 25.7105C53.272 25.876 53.6506 25.9864 54.0292 25.9864H57.4365V25.7105C56.7875 25.7105 56.3007 25.214 56.3007 24.5519V20.3588C56.3007 19.6967 56.7875 19.2002 57.4365 19.2002H59.6539C59.4375 19.3105 59.2212 19.476 59.0049 19.6416C58.0314 20.6347 58.0314 22.345 59.0049 23.3381C59.9784 24.3312 61.6549 24.3312 62.6284 23.3381C63.6019 22.345 63.6019 20.6347 62.6284 19.6416C62.1417 19.145 61.4927 18.8691 60.7896 18.8691H57.3824H54.1915H53.9751C53.6506 18.8691 53.3261 18.9243 53.0016 19.0898C51.6495 19.5864 50.7301 20.9105 50.7301 22.4002C50.7842 23.945 51.7036 25.214 52.9475 25.7105Z" fill="#0C2340"/>
<path d="M61.3305 25.7104C61.1682 25.6553 61.0059 25.6553 60.8437 25.6553H57.4365V25.9311C58.0855 25.9311 58.5722 26.4277 58.5722 27.0898V31.2829C58.5722 31.9449 58.0855 32.4415 57.4365 32.4415H55.219C55.4354 32.3311 55.6517 32.1656 55.868 32.0001C56.8415 31.007 56.8415 29.2967 55.868 28.3035C54.8945 27.3104 53.218 27.3104 52.2445 28.3035C51.271 29.2967 51.271 31.007 52.2445 32.0001C52.7312 32.4967 53.3802 32.7725 54.0833 32.7725H57.4905H60.8978C61.0059 32.7725 61.06 32.7725 61.1682 32.7725C61.2223 32.7725 61.2764 32.7725 61.3305 32.7725C61.3305 32.7725 61.3304 32.7725 61.3845 32.7725C63.0611 32.4967 64.305 31.0622 64.305 29.2967C64.2509 27.476 62.9529 25.9863 61.3305 25.7104Z" fill="#0C2340"/>
<path d="M11.7361 18.8691H8.32883H4.92158C4.27258 18.8691 3.62358 19.145 3.08275 19.6416C2.10925 20.6347 2.10925 22.345 3.08275 23.3381C4.05625 24.3312 5.73283 24.3312 6.70633 23.3381C7.67983 22.345 7.67983 20.6347 6.70633 19.6416C6.48999 19.4209 6.32775 19.3105 6.05733 19.145H8.27474C8.92374 19.145 9.41049 19.6416 9.41049 20.3036V25.8209H8.27474H4.92158C4.65116 25.8209 4.38075 25.876 4.11033 25.9864C2.70416 26.4278 1.67658 27.7519 1.67658 29.2967C1.67658 30.8416 2.65008 32.1105 4.00216 32.5519C4.27258 32.6622 4.59708 32.7174 4.92158 32.7174H8.32883H9.46458H14.0076V32.4416V30.0691V21.1864C14.0076 19.8622 12.98 18.8691 11.7361 18.8691ZM8.32883 26.0967H9.46458V32.4416H8.32883C8.05841 32.4416 7.84208 32.3864 7.67983 32.2209C7.40941 32.0002 7.19308 31.6691 7.19308 31.2829V29.1312V27.2553C7.19308 26.5933 7.67983 26.0967 8.32883 26.0967Z" fill="#0C2340"/>
<path d="M82.477 18.8691H79.0698H75.6625C75.0135 18.8691 74.3645 19.145 73.8237 19.6416C72.8502 20.6347 72.8502 22.345 73.8237 23.3381C74.7972 24.3312 76.4738 24.3312 77.4473 23.3381C78.4208 22.345 78.4208 20.6347 77.4473 19.6416C77.2309 19.4209 77.0687 19.3105 76.7983 19.145H79.0157C79.6647 19.145 80.1514 19.6416 80.1514 20.3036V25.8209H79.0157H75.6084C75.338 25.8209 75.0676 25.876 74.7972 25.9864C73.391 26.4278 72.3634 27.7519 72.3634 29.2967C72.3634 30.8416 73.3369 32.1105 74.689 32.5519C74.9594 32.6622 75.2839 32.7174 75.6084 32.7174H79.0157H80.1514H84.6944V32.4416V30.0691V21.1864C84.7485 19.9174 83.775 18.8691 82.477 18.8691ZM79.0698 32.4967C78.7994 32.4967 78.583 32.3864 78.3667 32.276C78.0963 32.0553 77.934 31.7243 77.934 31.3381V29.1864V27.3105C77.934 26.6485 78.4208 26.1519 79.0698 26.1519H80.2055V32.4967H79.0698Z" fill="#0C2340"/>
<path d="M97.0795 32.7173C98.7561 32.4415 100 31.007 100 29.2415C100 27.476 98.7561 26.0415 97.0795 25.7656C96.9173 25.7105 96.755 25.7104 96.5928 25.7104H93.1855V25.9863C93.8345 25.9863 94.3213 26.4829 94.3213 27.1449V31.338C94.3213 32.0001 93.8345 32.4967 93.1855 32.4967H90.9681C91.1844 32.3863 91.4008 32.2208 91.6171 32.0553C92.5906 31.0622 92.5906 29.3518 91.6171 28.3587C90.6436 27.3656 88.967 27.3656 87.9935 28.3587C87.02 29.3518 87.02 31.0622 87.9935 32.0553C88.4803 32.5518 89.1293 32.8277 89.8323 32.8277H93.2396H96.6468C96.755 32.8277 96.8091 32.8277 96.9173 32.8277C96.9173 32.7173 96.9713 32.7173 97.0795 32.7173C97.0254 32.7173 97.0254 32.7173 97.0795 32.7173Z" fill="#0C2340"/>
<path d="M88.7507 25.7105C89.0752 25.876 89.4538 25.9864 89.8323 25.9864H93.2396V25.7105C92.5906 25.7105 92.1038 25.214 92.1038 24.5519V20.3588C92.1038 19.6967 92.5906 19.2002 93.2396 19.2002H95.457C95.2407 19.3105 95.0243 19.476 94.808 19.6416C93.8345 20.6347 93.8345 22.345 94.808 23.3381C95.7815 24.3312 97.4581 24.3312 98.4316 23.3381C99.4051 22.345 99.4051 20.6347 98.4316 19.6416C97.9448 19.145 97.2958 18.8691 96.5928 18.8691H93.1855H89.9946H89.7783C89.4538 18.8691 89.1293 18.9243 88.8048 19.0898C87.4527 19.5864 86.5333 20.9105 86.5333 22.4002C86.5333 23.945 87.4527 25.214 88.7507 25.7105Z" fill="#0C2340"/>
<path d="M70.5246 14.2344L64.5214 19.1447H64.9H65.3867H66.0357V30.3999C66.0357 31.724 67.0092 32.7171 68.3072 32.7171H71.7144V32.4413C71.0654 32.4413 70.5787 31.9447 70.5787 31.2827V19.1447H71.7144V18.8689H70.5787V14.2344H70.5246Z" fill="#0C2340"/>
<path d="M7.84208 39.945C9.24594 39.945 10.384 38.784 10.384 37.3519C10.384 35.9198 9.24594 34.7588 7.84208 34.7588C6.43822 34.7588 5.30016 35.9198 5.30016 37.3519C5.30016 38.784 6.43822 39.945 7.84208 39.945Z" fill="#0C2340"/>
<path d="M33.6939 18.8691H31.5846V20.3036V22.4002V23.2829V27.9726V34.2071L35.9654 30.6209V27.9726V22.4553V21.2416C35.9654 19.9174 34.9919 18.8691 33.6939 18.8691Z" fill="#0C2340"/>
</svg>
